<?xml version="1.0" encoding="UTF-8" standalone="no"?>
<!-- Generator: Adobe Illustrator 17.0.1, SVG Export Plug-In . SVG Version: 6.00 Build 0)  -->

<svg
   xmlns:dc="http://purl.org/dc/elements/1.1/"
   xmlns:cc="http://creativecommons.org/ns#"
   xmlns:rdf="http://www.w3.org/1999/02/22-rdf-syntax-ns#"
   xmlns:svg="http://www.w3.org/2000/svg"
   xmlns="http://www.w3.org/2000/svg"
   xmlns:sodipodi="http://sodipodi.sourceforge.net/DTD/sodipodi-0.dtd"
   xmlns:inkscape="http://www.inkscape.org/namespaces/inkscape"
   version="1.1"
   x="0px"
   y="0px"
   width="86px"
   height="86px"
   viewBox="0 0 86 86"
   enable-background="new 0 0 86 86"
   xml:space="preserve"
   id="svg3216"
   inkscape:version="0.91 r13725"
   sodipodi:docname="harbour-salifish.svg"><metadata
     id="metadata3241"><rdf:RDF><cc:Work
         rdf:about=""><dc:format>image/svg+xml</dc:format><dc:type
           rdf:resource="http://purl.org/dc/dcmitype/StillImage" /><dc:title></dc:title></cc:Work></rdf:RDF></metadata><defs
     id="defs3239" /><sodipodi:namedview
     pagecolor="#ffffff"
     bordercolor="#666666"
     borderopacity="1"
     objecttolerance="10"
     gridtolerance="10"
     guidetolerance="10"
     inkscape:pageopacity="0"
     inkscape:pageshadow="2"
     inkscape:window-width="1855"
     inkscape:window-height="1056"
     id="namedview3237"
     showgrid="false"
     inkscape:zoom="6.2674419"
     inkscape:cx="11.60008"
     inkscape:cy="41.83488"
     inkscape:window-x="65"
     inkscape:window-y="24"
     inkscape:window-maximized="1"
     inkscape:current-layer="Layer_1" /><g
     id="Layer_2"
     display="none" /><g
     id="Layer_1"><linearGradient
       id="SVGID_1_"
       gradientUnits="userSpaceOnUse"
       x1="0.7169"
       y1="85.2831"
       x2="85.2831"
       y2="0.7169"
       gradientTransform="matrix(0,-1,1,0,0,86)"><stop
         offset="0"
         style="stop-color:#EB424A"
         id="stop3221" /><stop
         offset="1"
         style="stop-color:#FF7500"
         id="stop3223" /></linearGradient><path
       sodipodi:type="arc"
       style="fill:#000080"
       id="path3282"
       sodipodi:cx="43.23933"
       sodipodi:cy="43.079777"
       sodipodi:rx="42.76067"
       sodipodi:ry="42.76067"
       d="m 86,43.079777 a 42.76067,42.76067 0 1 1 -85.52133942,0 42.76067,42.76067 0 1 1 85.52133942,0 z" /><rect
       style="fill:#000080"
       id="rect4070"
       width="43.23933"
       height="42.920223"
       x="0.47866446"
       y="0.31910938" /><rect
       style="fill:#000080"
       id="rect4070-2"
       width="43.23933"
       height="42.920223"
       x="42.680889"
       y="42.840443" /><rect
       style="fill:#ffffff"
       id="rect4116"
       width="2.5528758"
       height="2.2337663"
       x="83.406303"
       y="83.628944" /><rect
       style="fill:#ffffff"
       id="rect4116-0"
       width="2.5528758"
       height="2.2337663"
       x="0.15955414"
       y="0.15955448" /><path
       sodipodi:type="arc"
       style="fill:#000080"
       id="path4155"
       sodipodi:cx="2.1539888"
       sodipodi:cy="2.393321"
       sodipodi:rx="1.6753247"
       sodipodi:ry="2.0742116"
       d="m 3.8293135,2.393321 a 1.6753247,2.0742116 0 1 1 -3.35064934,0 1.6753247,2.0742116 0 1 1 3.35064934,0 z" /><path
       transform="matrix(1.2857143,0,0,1,80.837265,81.213358)"
       sodipodi:type="arc"
       style="fill:#000080"
       id="path4155-5"
       sodipodi:cx="2.1539888"
       sodipodi:cy="2.393321"
       sodipodi:rx="1.6753247"
       sodipodi:ry="2.0742116"
       d="m 3.8293135,2.393321 a 1.6753247,2.0742116 0 1 1 -3.35064934,0 1.6753247,2.0742116 0 1 1 3.35064934,0 z" /><path
       style="fill:#ffffff"
       d="m 0.31074225,7.6177316 c -6.053e-5,-2.8959183 0.0215039,-4.1031222 0.0479211,-2.6826754 0.0264171,1.420447 0.0264666,3.7898348 1.1004e-4,5.2653058 -0.0263566,1.475472 -0.0479706,0.313288 -0.0480311,-2.5826304 z"
       id="path4177"
       inkscape:connector-curvature="0" /><ellipse
       style="fill:#6c5353"
       id="path4219"
       transform="matrix(-0.70710678,-0.70710678,0.70710678,-0.70710678,0,0)"
       cx="-82.190987"
       cy="-0.16922718"
       rx="5.9913044"
       ry="28.257494" /><ellipse
       style="fill:#6c5353"
       id="path4221"
       transform="matrix(-0.70710678,-0.70710678,0.70710678,-0.70710678,0,0)"
       cx="-85.632072"
       cy="0.1128208"
       rx="5.0897961"
       ry="21.587755" /><ellipse
       style="fill:#6c5353"
       id="path4225"
       transform="matrix(-0.70710678,-0.70710678,0.70710678,-0.70710678,0,0)"
       cx="-88.114166"
       cy="0.90257603"
       rx="7.1081634"
       ry="14.655102" /><ellipse
       ry="28.257494"
       rx="5.9913044"
       cy="0.17317131"
       cx="-40.894119"
       style="fill:#6c5353"
       id="path4219-5"
       transform="matrix(-0.70710678,-0.70710678,0.70710678,-0.70710678,0,0)" /><ellipse
       ry="21.587755"
       rx="5.0897961"
       cy="0.44710854"
       cx="-37.227177"
       style="fill:#6c5353"
       id="path4221-3"
       transform="matrix(-0.70710678,-0.70710678,0.70710678,-0.70710678,0,0)" /><ellipse
       ry="14.655102"
       rx="7.1081634"
       cy="0.56804204"
       cx="-34.52755"
       style="fill:#6c5353"
       id="path4225-2"
       transform="matrix(-0.70710678,-0.70710678,0.70710678,-0.70710678,0,0)" /><rect
       style="fill:#6c5353;fill-opacity:1"
       id="rect3384"
       width="45.782017"
       height="9.803421"
       x="38.069103"
       y="-8.2772923"
       ry="0.38217154"
       transform="matrix(0.68394928,0.72952957,-0.69424642,0.71973739,0,0)" /></g></svg>